<svg xmlns="http://www.w3.org/2000/svg" xmlns:xlink="http://www.w3.org/1999/xlink" data-v-a47b97f8="" version="1.0" width="305.7777792268555" height="322.7692287628156" preserveAspectRatio="xMidYMid meet" color-interpolation-filters="sRGB" style="margin: auto;"><rect id="backgroundrect" width="100%" height="100%" x="0" y="0" fill="none" stroke="none" class="" style=""/> <!----> <defs v-gra="od"/><g class="currentLayer" style=""><title>Layer 1</title>  <defs transform="translate(64.1025619506836,0.8547008037567139) translate(-105.98290252685547,2.5641024112701416) translate(51.282047271728516,-5.128204822540283) translate(24.031007766723633,1.5503876209259033) translate(-8.527132034301758,-14.728682518005371) translate(-393.02325439453125,-48.062015533447266) translate(193.7984619140625,65.11627960205078) translate(233.33334350585938,-102.3255844116211) translate(-125.5813980102539,65.89147186279297) translate(-30.232559204101562,4.651163101196289) translate(-2.3255815505981445,-41.08527374267578) translate(82.94573974609375,71.31783294677734) translate(-102.3255844116211,-73.6434097290039) translate(62.31500244140625,0) translate(77.68499755859375,71.543212890625) translate(77.68499755859375,71.543212890625) scale(1.6235566139221191) translate(-77.68499755859375,-71.543212890625) translate(6.075648307800293,122.06941986083984) scale(1) translate(-6.075648307800293,-122.06941986083984) translate(21.832378387451172,8.255749702453613) scale(2.440357208251953,2.4429643154144287) translate(-21.832378387451172,-8.255749702453613) translate(6.794188022613525,-0.3340666592121124) scale(1.0293481349945068) translate(-6.794188022613525,0.3340666592121124) "><filter id="colors4692766669"><feColorMatrix type="matrix" values="0 0 0 0 0.99609375  0 0 0 0 0.99609375  0 0 0 0 0.99609375  0 0 0 1 0" class="icon-fecolormatrix"/></filter> <filter id="colorsf4079862366"><feColorMatrix type="matrix" values="0 0 0 0 0.99609375  0 0 0 0 0.99609375  0 0 0 0 0.99609375  0 0 0 1 0" class="icon-fecolormatrix"/></filter> <filter id="colorsb2888158977"><feColorMatrix type="matrix" values="0 0 0 0 0  0 0 0 0 0  0 0 0 0 0  0 0 0 1 0" class="icon-fecolormatrix"/></filter></defs> <g id="svg_1" class="selected" stroke="#ffffff" stroke-opacity="1"><g id="svg_5" transform="matrix(0.9135601332119617,0,0,0.9145361170386713,215.03155330202378,236.1102075501462) " stroke-width="0" stroke="#ffffff" stroke-opacity="1"><svg xmlns="http://www.w3.org/2000/svg" viewBox="-0.6000000000000001 -0.6000000000000001 59.5 59.4" id="svg_4" x="-226.729734964145" y="-238.97766231142066"><path d="M36.4 21.9c4 4 4 10.5 0 14.5s-10.5 4-14.5 0-4-10.5 0-14.5m14.5 0L22.5 8 1.4 29.1l27.7 27.7 27.7-27.7L29.1 1.4m7.3 34.9c4-4 4-10.5 0-14.5s-10.5-4-14.5 0-4 10.5 0 14.5m0 0l13.9 13.9 21.1-21.1L29.2 1.4 1.5 29.1l27.7 27.7" fill="none" stroke="#ffffff" stroke-width="2" stroke-miterlimit="10" id="svg_6" stroke-opacity="1"/></svg></g></g></g></svg>